<svg xmlns="http://www.w3.org/2000/svg" viewBox="0 0 1000 1000" width="200" height="200">
  <!-- Background Circle -->
  <circle cx="500" cy="500" r="500" fill="url(#gradient)" />
  
  <!-- Clipboard Shape -->
  <path d="M275 190 C275 160, 400 120, 500 120 C600 120, 725 160, 725 190 L725 810 C725 840, 600 880, 500 880 C400 880, 275 840, 275 810 Z" fill="white" />
  
  <!-- Clipboard Top -->
  <path d="M400 120 L600 120 C600 120, 600 180, 500 180 C400 180, 400 120, 400 120 Z" fill="white" />
  
  <!-- Clipboard Clip -->
  <circle cx="500" cy="150" r="30" fill="white" stroke="#26a6c9" stroke-width="10" />
  
  <!-- Heartbeat Line -->
  <path d="M350 600 L430 600 L455 500 L500 700 L545 600 L570 600" fill="none" stroke="#26a6c9" stroke-width="15" stroke-linecap="round" />
  
  <!-- Dots -->
  <circle cx="610" cy="600" r="10" fill="#26a6c9" />
  <circle cx="650" cy="600" r="10" fill="#26a6c9" />
  <circle cx="690" cy="600" r="10" fill="#26a6c9" />
  
  <!-- Gradient Definition -->
  <defs>
    <linearGradient id="gradient" x1="0%" y1="0%" x2="100%" y2="100%">
      <stop offset="0%" style="stop-color:#26a6c9;stop-opacity:1" />
      <stop offset="100%" style="stop-color:#1a7a95;stop-opacity:1" />
    </linearGradient>
  </defs>
</svg>